<svg viewBox="0 0 36 36" fill="none" xmlns="http://www.w3.org/2000/svg">
  <defs>
    <linearGradient id="bg" x1="0" y1="18" x2="36" y2="18" gradientUnits="userSpaceOnUse">
      <stop offset="0%" stop-color="#56dbd3"/>
      <stop offset="100%" stop-color="#a78bfa"/>
    </linearGradient>
    <clipPath id="d">
      <polygon points="18,2 34,18 18,34 2,18"/>
    </clipPath>
  </defs>
  <rect width="36" height="36" rx="8" fill="url(#bg)"/>
  <g clip-path="url(#d)">
    <g transform="rotate(45, 18, 18)">
      <rect x="6" y="6" width="6" height="6" fill="rgba(255,255,255,0.88)"/>
      <rect x="18" y="6" width="6" height="6" fill="rgba(255,255,255,0.88)"/>
      <rect x="12" y="12" width="6" height="6" fill="rgba(255,255,255,0.88)"/>
      <rect x="24" y="12" width="6" height="6" fill="rgba(255,255,255,0.88)"/>
      <rect x="6" y="18" width="6" height="6" fill="rgba(255,255,255,0.88)"/>
      <rect x="18" y="18" width="6" height="6" fill="rgba(255,255,255,0.88)"/>
      <rect x="12" y="24" width="6" height="6" fill="rgba(255,255,255,0.88)"/>
      <rect x="24" y="24" width="6" height="6" fill="rgba(255,255,255,0.88)"/>
      <rect x="12" y="6" width="6" height="6" fill="rgba(0,0,0,0.28)"/>
      <rect x="24" y="6" width="6" height="6" fill="rgba(0,0,0,0.28)"/>
      <rect x="6" y="12" width="6" height="6" fill="rgba(0,0,0,0.28)"/>
      <rect x="18" y="12" width="6" height="6" fill="rgba(0,0,0,0.28)"/>
      <rect x="12" y="18" width="6" height="6" fill="rgba(0,0,0,0.28)"/>
      <rect x="24" y="18" width="6" height="6" fill="rgba(0,0,0,0.28)"/>
      <rect x="6" y="24" width="6" height="6" fill="rgba(0,0,0,0.28)"/>
      <rect x="18" y="24" width="6" height="6" fill="rgba(0,0,0,0.28)"/>
    </g>
  </g>
  <line x1="18" y1="2" x2="18" y2="34" stroke="rgba(255,255,255,0.5)" stroke-width="1.25"/>
  <rect width="36" height="36" rx="8" fill="none" stroke="rgba(255,255,255,0.15)" stroke-width="0.75"/>
</svg>
